<?xml version="1.0" encoding="utf-8"?>
<!-- Generator: Adobe Illustrator 25.2.3, SVG Export Plug-In . SVG Version: 6.00 Build 0)  -->
<svg version="1.1" id="Group_1" xmlns="http://www.w3.org/2000/svg" xmlns:xlink="http://www.w3.org/1999/xlink" x="0px" y="0px"
	 viewBox="0 0 800 166.9" style="enable-background:new 0 0 800 166.9;" xml:space="preserve">
<style type="text/css">
	.st0{fill:#FFFFFF;}
</style>
<path id="Path_2" class="st0" d="M78.1,111.7l78.1,55.2L78.1,0L0,166.9L78.1,111.7z"/>
<path id="Path_3" class="st0" d="M196.7,52.8v-0.5h31.6v0.5c-0.8,2.9-1.1,5.9-0.9,8.9c-0.1,3.8,0.6,7.6,1.9,11.2l9.8,29.9l10.7-31.3
	c-2.8-6.5-5.6-13.1-9.3-19.2v-0.5h31.6v0.5c-0.8,2.9-1.1,5.9-0.9,8.9c-0.1,3.8,0.6,7.6,1.9,11.2l9.8,29.9l9.8-29.4
	c1-3,1.4-6.2,1.4-9.3c-0.1-3.8-0.8-7.6-1.9-11.2v-0.5h16.7v0.9c-3.7,5.9-6.7,12.1-8.8,18.7l-18.1,52.8h-13L253,80.9l-15.8,43.5
	h-12.1L207,73.4C204.3,66.2,200.9,59.3,196.7,52.8z"/>
<path id="Path_4" class="st0" d="M316.3,121.1l1.4-5.1c0.5-1.9,0.9-4.2,1.4-6.5c0.4-2.5,0.6-5,0.5-7.5V74.8
	c-0.5-7.4-1.8-14.8-3.7-22v-0.5h23.7v49.5c-0.1,1.9,0.1,3.8,0.5,5.6c0,1.9,0.4,3.8,0.9,5.6c0.5,1.5,0.8,3.1,0.9,4.7
	c0.5,1.4,0.5,2.3,0.9,3.7l0.5,1.9v0.5h-28.4v-0.5C315.8,122.5,315.8,121.5,316.3,121.1z M315.3,28.5c0-3.3,1.4-6.5,3.7-8.9
	c5.2-5,13.4-5,18.6,0c2.3,2.4,3.7,5.5,3.7,8.9c0,3.5-1.4,6.8-3.7,9.3c-2.5,2.4-5.8,3.8-9.3,3.7c-3.5,0-6.8-1.4-9.3-3.7
	C316.7,35.3,315.4,32,315.3,28.5L315.3,28.5z"/>
<path id="Path_5" class="st0" d="M352.1,20.1l24.7-2.8v84.1c-0.1,2.5,0.1,5,0.5,7.5c0.3,2.2,0.8,4.4,1.4,6.5
	c0.5,1.9,0.9,3.7,1.4,5.1c0.4,0.9,0.5,1.8,0.5,2.8v0.5h-28.4v-0.5c0-0.9,0.5-1.9,0.5-2.8c0.5-1.9,0.9-3.3,1.4-5.1s0.9-4.2,1.4-6.5
	c0.4-2.5,0.6-5,0.5-7.5V42.1c0-7.4-1.4-14.7-4.2-21.5L352.1,20.1z"/>
<path id="Path_6" class="st0" d="M413,107c1.9,4.8,6.5,7.9,11.6,7.9c4.5-0.4,8.7-2.2,12.1-5.1c0-1.4-0.5-2.8-0.5-4.2V68.2
	c-3.3-2.8-7-4.7-11.2-4.7c-4.9-0.2-9.5,2.6-11.6,7c-2.8,5.5-4.1,11.6-3.7,17.8C409.2,94.8,410.4,101.2,413,107z M387,88.3
	c0-11.7,2.8-21,8.4-27.1c5.1-6.1,12.6-9.8,20.5-9.3c8.3-0.5,16.2,3.7,20.5,10.8V42.5c-0.1-2.4-0.4-4.7-0.9-7c-0.4-2.2-1-4.4-1.9-6.5
	c0-1.9-0.9-3.7-1.4-5.6l-1.4-3.3l26.5-2.8v84.1c0.5,7.4,1.8,14.8,3.7,22v0.5h-19.1c0-0.5-0.9-1.9-1.9-4.2c-1-1.9-1.8-4-2.3-6.1
	c-4.7,7.5-13,12.1-21.9,12.2c-7.8,0-15.2-3.6-20-9.8C389.8,109.4,387,100,387,88.3L387,88.3z"/>
<path id="Path_7" class="st0" d="M503.7,115c5.3,0,10-3.1,12.1-7.9c2.9-6.1,4.2-12.9,3.7-19.6c0.2-6.1-1.1-12.2-3.7-17.8
	c-2.1-4.3-6.4-7-11.2-7c-4.3,0-8.4,1.9-11.2,5.1v43C496.2,113.5,499.9,115,503.7,115z M468.4,52.8l24.6-0.5v9.8
	c4.6-7,12.5-11.1,20.9-10.8c7.7-0.1,15.1,3.4,20,9.3c5.6,6.1,7.9,15,7.9,26.6c0,12.2-2.8,21.5-8.8,28c-5.2,6.2-12.8,9.8-20.9,9.8
	c-7.4,0-14.4-3.2-19.1-8.9v13.6c-0.1,2.5,0.1,5,0.5,7.5c0.3,2.2,0.8,4.4,1.4,6.5c0.5,1.9,0.9,3.7,1.4,5.1c0.4,0.9,0.5,1.8,0.5,2.8
	v0.5h-28.4v-0.5c0-0.9,0.5-1.9,0.5-2.8c0.5-1.9,0.9-3.3,1.4-5.1c0.5-1.9,0.9-4.2,1.4-6.5c0.4-2.5,0.6-5,0.5-7.5V75.3
	c-0.1-3.1-0.4-6.3-0.9-9.3c-0.5-3.3-1.4-6.1-1.9-8.9C468.8,54.7,468.8,53.3,468.4,52.8z"/>
<path id="Path_8" class="st0" d="M574.9,103.3c0.9,4.1,2.4,8.1,4.7,11.7c1.8,2.9,5,4.7,8.4,4.7c4.6,0,8.4-3.3,10.7-9.3
	c2.4-7.2,3.7-14.8,3.7-22.4c0.2-7.5-1.1-15-3.7-22c-2.3-6.1-6-8.9-10.7-8.9c-4.6,0-8.4,3.3-10.7,8.9c-2.4,7.1-3.7,14.5-3.7,22
	C573.5,93.1,574,98.2,574.9,103.3z M550.7,87.9c0-11.7,3.7-21,10.7-27.1c7.3-6.5,16.8-9.8,26.5-9.3c9.7-0.3,19.2,3,26.5,9.3
	c7,6.5,10.7,15.4,10.7,27.1s-3.7,21-10.7,27.6c-15.3,13.1-37.8,13.1-53,0C553.9,108.9,550.7,100,550.7,87.9z"/>
<path id="Path_9" class="st0" d="M633.9,121.1l1.4-5.1c0.5-1.9,0.9-4.2,1.4-6.5c0.4-2.5,0.6-5,0.5-7.5V74.8
	c-0.5-7.4-1.8-14.8-3.7-22v-0.5h24.2v49.5c-0.1,1.9,0.1,3.8,0.5,5.6c0.1,1.9,0.4,3.8,0.9,5.6c0.5,1.5,0.8,3.1,0.9,4.7
	c0.5,1.4,0.5,2.3,0.9,3.7l0.5,1.9v0.5H633v-0.5C633.4,122.7,633.8,121.9,633.9,121.1z M633.5,28.5c0-3.3,1.4-6.5,3.7-8.9
	c5.2-5,13.4-5,18.6,0c2.3,2.4,3.7,5.5,3.7,8.9c0,3.5-1.4,6.8-3.7,9.3c-5.1,5.1-13.5,5.1-18.6,0c0,0,0,0,0,0
	C634.8,35.3,633.5,32,633.5,28.5L633.5,28.5z"/>
<path id="Path_10" class="st0" d="M670.7,52.8v-0.5h24.2V65c5.6-8.9,13.5-13.1,23.3-13.1c6.1-0.1,12.1,2,16.7,6.1
	c4.7,4.2,6.5,9.8,6.5,17.8v26.2c-0.1,2.5,0.1,5,0.5,7.5c0.3,2.2,0.8,4.4,1.4,6.5c0.5,1.4,0.9,3.7,1.4,5.1c0.4,0.9,0.5,1.8,0.5,2.8
	v0.5h-28.4v-0.5c2-7.2,3.2-14.5,3.7-22V78.5c0.4-3.7-0.8-7.4-3.3-10.3c-2.3-2.4-5.5-3.7-8.8-3.7h-0.5c-4.7,0.1-9.3,1.8-13,4.7v32.3
	c-0.1,1.9,0.1,3.8,0.5,5.6c0.1,1.9,0.4,3.8,0.9,5.6c0.5,1.5,0.8,3.1,0.9,4.7c0.5,1.4,0.5,2.3,0.9,3.7l0.5,1.9v0.5h-28.4v-0.5
	c0-0.9,0.5-1.9,0.5-2.8c0.5-1.9,0.9-3.3,1.4-5.1c0.5-1.9,0.9-4.2,1.4-6.5c0.4-2.5,0.6-5,0.5-7.5V74.8c0.1-2.5-0.1-5-0.5-7.5
	c-0.5-2.8-0.9-4.7-1.4-6.5c-0.5-1.9-0.9-3.7-1.4-5.1L670.7,52.8z"/>
<path id="Path_11" class="st0" d="M748.4,58.4v-5.6c6.1-2.7,11.9-6.2,17.2-10.3c5-4.1,9.4-9,13-14.5h0.9v24.3h19.5v6.1h-19.5V101
	c0,7,3.3,10.8,9.8,10.8c3.7,0,7.4-1,10.7-2.8c-4.2,11.2-11.6,16.8-22.3,16.8c-5.4,0.5-10.7-1.8-14-6.1c-3.3-4.2-5.1-9.3-5.1-16.8
	V58.4H748.4z"/>
</svg>
