<?xml version="1.0" standalone="no"?>
<!DOCTYPE svg PUBLIC "-//W3C//DTD SVG 20010904//EN"
 "http://www.w3.org/TR/2001/REC-SVG-20010904/DTD/svg10.dtd">
<svg version="1.0" xmlns="http://www.w3.org/2000/svg"
 width="832.000000pt" height="832.000000pt" viewBox="0 0 832.000000 832.000000"
 preserveAspectRatio="xMidYMid meet">
<metadata>
Created by potrace 1.11, written by Peter Selinger 2001-2013
</metadata>
<g transform="translate(0.000000,832.000000) scale(0.100000,-0.100000)"
fill="#000000" stroke="none">
<path d="M4136 8249 c-15 -28 -26 -57 -26 -65 0 -8 -4 -14 -10 -14 -5 0 -10
-4 -10 -10 0 -5 -22 -56 -48 -112 -27 -57 -64 -137 -83 -178 -18 -41 -36 -77
-40 -80 -8 -6 -24 -53 -21 -62 1 -5 -2 -8 -8 -8 -5 0 -10 -4 -10 -9 0 -10 -75
-178 -90 -201 -6 -8 -13 -22 -16 -30 -10 -26 -45 -102 -83 -180 -19 -41 -34
-78 -33 -82 1 -5 -3 -8 -8 -8 -6 0 -10 -5 -10 -11 0 -6 -19 -50 -41 -98 -69
-144 -89 -189 -89 -200 0 -6 -4 -11 -10 -11 -5 0 -10 -4 -10 -10 0 -5 -21 -53
-46 -107 -25 -54 -57 -123 -71 -153 -14 -30 -46 -98 -70 -150 -25 -52 -59
-124 -75 -160 -17 -36 -49 -105 -73 -155 -23 -49 -58 -124 -78 -165 -19 -41
-53 -113 -75 -160 -54 -117 -109 -234 -142 -305 -15 -33 -50 -107 -78 -165
-90 -191 -124 -264 -154 -330 -16 -36 -33 -72 -39 -80 -5 -8 -12 -22 -15 -30
-3 -8 -18 -40 -32 -70 -15 -30 -27 -57 -28 -60 0 -3 -17 -41 -38 -85 -40 -84
-76 -161 -146 -310 -23 -49 -57 -121 -75 -160 -18 -38 -55 -117 -83 -175 -27
-58 -52 -115 -56 -128 -4 -12 -12 -22 -17 -22 -5 0 -8 -3 -7 -7 2 -12 3 -11
-143 -320 -23 -49 -54 -116 -70 -150 -15 -34 -46 -99 -68 -145 -89 -188 -124
-263 -126 -268 -1 -7 -36 -81 -107 -230 -71 -147 -82 -172 -80 -182 1 -5 -3
-8 -8 -8 -6 0 -10 -4 -10 -9 0 -5 -25 -62 -56 -127 -31 -66 -67 -146 -81 -179
-14 -33 -28 -62 -32 -65 -4 -3 -18 -30 -30 -60 -13 -30 -46 -102 -74 -160 -78
-165 -97 -208 -97 -219 0 -5 -5 -11 -11 -13 -5 -2 -11 -10 -13 -18 -1 -8 -17
-46 -35 -85 -18 -38 -60 -128 -93 -200 -33 -71 -65 -133 -70 -136 -5 -3 -9 -8
-7 -10 5 -9 -26 -79 -35 -79 -5 0 -7 -3 -3 -6 3 -3 -3 -22 -13 -42 -19 -38
-94 -196 -150 -317 -39 -83 -95 -202 -151 -323 -70 -148 -115 -243 -158 -337
-23 -50 -54 -116 -71 -148 -17 -35 -23 -57 -16 -54 14 5 186 126 196 136 3 3
32 24 65 46 55 37 236 164 260 183 6 4 78 55 160 113 83 58 173 121 200 140
28 20 124 88 215 152 91 63 170 120 177 126 7 6 17 11 23 11 5 0 10 4 10 8 0
4 14 16 32 26 17 11 39 25 47 32 41 34 273 194 281 194 4 0 10 4 12 8 2 5 50
41 108 82 58 40 115 80 126 89 12 9 32 23 44 31 12 8 68 47 124 87 55 39 122
87 149 105 26 18 55 39 65 46 9 6 71 50 137 97 66 46 169 119 229 162 60 43
114 80 120 82 6 2 16 9 22 15 6 6 20 17 30 24 48 32 330 232 341 242 7 5 16
10 22 10 5 0 11 3 13 8 4 9 105 82 114 82 3 0 12 7 21 15 8 9 43 34 77 57 33
23 66 46 71 50 14 11 126 90 231 163 48 33 92 65 98 70 6 6 22 17 35 26 24 15
27 14 70 -15 26 -17 48 -34 49 -38 2 -5 8 -8 13 -8 6 0 15 -5 22 -10 7 -6 44
-34 82 -61 39 -28 79 -57 90 -65 11 -8 34 -23 50 -34 59 -39 68 -45 84 -58 9
-8 86 -63 171 -122 85 -60 180 -126 210 -148 258 -183 399 -282 404 -282 3 0
14 -7 24 -16 43 -39 78 -64 89 -64 6 0 13 -3 15 -8 2 -4 64 -50 138 -102 74
-52 137 -98 138 -102 2 -4 9 -8 16 -8 7 0 21 -8 32 -18 10 -10 42 -33 69 -52
28 -19 52 -37 53 -42 2 -4 9 -8 15 -8 7 0 23 -10 37 -23 14 -12 50 -39 80 -59
30 -20 116 -80 190 -132 74 -52 143 -101 154 -108 10 -7 24 -19 32 -26 7 -6
17 -12 23 -12 5 0 15 -8 20 -17 6 -10 11 -14 11 -10 0 4 6 3 13 -3 12 -10 98
-73 134 -98 56 -39 290 -203 298 -209 6 -5 93 -67 195 -138 102 -71 187 -132
190 -135 3 -4 39 -28 80 -55 41 -28 77 -53 80 -56 3 -3 43 -32 90 -65 47 -32
94 -66 104 -76 11 -10 26 -18 33 -18 7 0 13 -3 13 -7 0 -5 25 -24 55 -43 30
-19 55 -38 55 -42 0 -5 7 -8 15 -8 8 0 15 -4 15 -10 0 -5 5 -10 11 -10 6 0 25
-11 43 -25 17 -14 36 -29 41 -33 26 -21 65 -44 65 -38 0 3 -31 72 -69 154 -38
81 -85 181 -104 222 -19 41 -53 114 -76 163 -23 48 -59 126 -82 175 -23 48
-57 121 -76 162 -83 175 -106 225 -108 230 -1 3 -21 46 -44 95 -24 50 -56 119
-73 155 -17 36 -48 101 -68 145 -76 162 -118 252 -150 320 -44 95 -104 223
-151 323 -51 107 -109 232 -144 307 -15 33 -53 112 -83 175 -60 126 -117 251
-121 262 -1 4 -17 38 -35 75 -19 38 -49 102 -69 143 -19 41 -85 183 -147 315
-62 132 -125 267 -140 300 -15 33 -44 93 -64 134 -20 41 -36 80 -36 86 0 7 -7
18 -15 25 -8 7 -15 21 -15 31 0 9 -7 25 -16 33 -8 9 -13 16 -10 16 2 0 -15 41
-40 90 -24 50 -44 92 -44 94 0 2 -27 62 -61 132 -76 161 -128 272 -130 282 -2
4 -15 32 -30 62 -49 101 -129 270 -130 275 0 2 -13 31 -28 62 -16 32 -47 99
-70 148 -23 50 -48 103 -56 118 -8 16 -15 35 -15 43 0 8 -3 14 -8 14 -4 0 -13
15 -21 33 -26 59 -68 151 -121 262 -28 61 -64 135 -78 165 -14 30 -27 57 -27
60 -1 3 -21 46 -44 95 -80 168 -119 250 -141 300 -13 28 -46 100 -75 160 -77
162 -105 224 -105 235 0 6 -4 10 -10 10 -5 0 -10 5 -10 11 0 10 -9 31 -110
244 -29 61 -66 139 -82 175 -16 36 -47 101 -68 145 -66 138 -110 236 -110 245
0 4 -7 13 -15 20 -9 7 -14 15 -11 17 2 3 -10 35 -28 71 -18 37 -44 92 -59 122
-14 30 -45 98 -70 150 -25 52 -61 130 -81 173 -20 42 -52 111 -71 152 -19 41
-37 75 -39 75 -3 0 -16 -23 -30 -51z"/>
</g>
</svg>
