<svg width="284" height="443" viewBox="0 0 284 443" fill="none" xmlns="http://www.w3.org/2000/svg">
<g filter="url(#filter0_b)">
<path d="M153.959 200.039C154.583 200.061 155.205 199.966 155.793 199.759L163.992 196.872C164.425 196.72 164.835 196.509 165.21 196.245L171.605 191.744C173.052 190.726 173.852 189.02 173.711 187.256L173.639 186.355C173.423 183.651 175.402 181.268 178.1 180.984L184.272 180.334C185.591 180.195 186.8 179.538 187.635 178.507L191.502 173.729C191.952 173.174 192.514 172.722 193.153 172.402L193.748 172.105C196.372 170.793 197.308 167.514 195.771 165.014L191.393 157.891C191.038 157.314 190.569 156.814 190.015 156.424L174.425 145.425C173.939 145.082 173.361 144.894 172.767 144.886L166.07 144.795C163.97 144.767 163.53 141.818 165.53 141.178C165.831 141.082 166.102 140.91 166.318 140.68L168.693 138.142C169.589 137.185 170.825 136.618 172.134 136.563L174.464 136.466C177.909 136.322 179.844 132.439 177.885 129.602C176.764 127.978 176.867 125.805 178.137 124.295L178.806 123.5L208.029 86.115L213.656 77.2206C215.37 74.5113 214.127 70.9117 211.107 69.8368L183.675 60.0738L171.58 56.469C170.451 56.1326 169.24 56.2055 168.16 56.6747L159.748 60.3289C158.966 60.6683 158.108 60.7924 157.262 60.6883L153.954 60.2808C150.989 59.9157 149.928 56.161 152.264 54.2983C153.004 53.7075 153.959 53.4556 154.895 53.6042L156.528 53.8636C157.635 54.0394 158.758 53.6579 159.528 52.844L160.019 52.3255C161.561 50.6973 160.811 48.0136 158.649 47.4205L158.351 47.3388C157.981 47.2373 157.649 47.0289 157.397 46.7396C156.642 45.8723 156.8 44.5433 157.736 43.8761L185.75 23.9181C186.406 23.4501 186.94 22.8301 187.306 22.1109L189.305 18.1764C190.906 15.0258 188.822 11.254 185.303 10.9322L157.323 8.37337C156.497 8.29785 155.693 8.66742 155.213 9.34353C154.039 10.996 151.461 10.4631 151.039 8.48082L150.861 7.64462C150.698 6.88292 150.215 6.22823 149.536 5.84832L144.004 2.75705C141.382 1.29202 138.069 2.45239 136.935 5.23315L135.612 8.47748C135.194 9.50035 135.127 10.6326 135.422 11.6974L136.144 14.3133C136.901 17.0534 135.224 19.8724 132.455 20.5151L130.867 20.8837L128.13 21.1893C127.074 21.3072 126.289 22.2234 126.335 23.2854L126.366 23.9911C126.425 25.3652 124.89 26.2171 123.755 25.4392C122.598 24.6455 121.037 25.5489 121.149 26.9481L121.422 30.3626C121.438 30.5729 121.492 30.7787 121.579 30.9706C122.272 32.4901 120.718 34.0594 119.192 33.3821L118.93 33.2661C117.904 32.8106 116.707 33.3277 116.335 34.3873L115.414 37.0108C114.997 38.1996 113.875 38.9953 112.615 38.9953H112.255C111.856 38.9953 111.469 38.8681 111.148 38.6324C109.703 37.5699 107.736 38.9575 108.253 40.6755L111.491 51.4479C111.591 51.7823 111.656 52.1173 111.684 52.4653C111.909 55.2339 112.947 68.2555 112.603 68.7738C112.437 69.0244 110.8 69.3111 108.994 69.5559C106.914 69.8378 105.939 72.3425 107.341 73.9047C108.801 75.5321 107.675 78.1223 105.49 78.1654L103.02 78.2141C101.907 78.2361 100.863 78.7601 100.181 79.6398L95.3841 85.8208C95.2002 86.0577 95.0381 86.3107 94.8996 86.5766L94.3274 87.6753C93.5017 89.2607 91.8925 90.2847 90.1066 90.3612L86.6199 90.5104C85.1878 90.5717 84.1153 91.8461 84.2997 93.2676L84.3499 93.655C84.459 94.4959 84.0035 95.3088 83.2294 95.6548C81.7196 96.3298 81.7125 98.4705 83.2178 99.1554L84.5515 99.7622C86.0341 100.437 86.5287 102.299 85.5763 103.621L81.9717 108.621C81.8854 108.741 81.81 108.868 81.7462 109.001C80.8159 110.941 82.6165 113.069 84.6839 112.472L94.4641 109.651C95.5058 109.35 96.4215 108.719 97.0734 107.853L101.039 102.582C101.313 102.218 101.636 101.893 101.998 101.616L106.259 98.3591L110.214 96.1072C111.125 95.5882 112.28 96.0831 112.533 97.1011C112.693 97.7422 112.437 98.4149 111.892 98.7886L105.47 103.193C104.73 103.7 104.14 104.398 103.762 105.212L102.037 108.931C101.779 109.485 101.423 109.988 100.984 110.413L97.1856 114.102C96.4603 114.807 95.9656 115.714 95.7667 116.705L94.257 124.226C94.0616 125.2 93.581 126.093 92.8764 126.792L88.6557 130.98C87.8026 131.826 87.9013 133.233 88.8642 133.952C89.6728 134.556 89.8932 135.674 89.3742 136.539L89.264 136.723C88.7452 137.588 88.88 138.695 89.5913 139.411L90.0179 139.84C91.0646 140.893 91.1774 142.555 90.2823 143.74L84.7601 151.048C84.6114 151.245 84.4774 151.452 84.3594 151.669L78.7344 161.985C78.2653 162.846 78.168 163.86 78.4651 164.794C79.0603 166.665 81.0467 167.711 82.926 167.144L84.7689 166.588C86.3126 166.122 87.5369 164.941 88.0572 163.414L89.5354 159.078L90.8812 155.017L92.4773 149.618C92.8122 148.484 93.5377 147.506 94.5249 146.857L95.9866 145.896C97.2558 145.061 98.0768 143.695 98.2177 142.182L98.4824 139.343C98.5412 138.712 98.4761 138.076 98.2909 137.47C97.5729 135.124 98.7179 132.61 100.96 131.611L107.574 128.664C109.893 127.631 112.618 128.5 113.911 130.684L116.869 135.678C117.044 135.974 117.311 136.204 117.629 136.334C119.091 136.933 118.866 139.069 117.312 139.349L114.4 139.874C113.53 140.031 112.813 140.645 112.529 141.482C111.547 144.379 109.338 150.978 109.338 151.73C109.338 152.339 111.474 156.632 113.056 159.726C114.04 161.652 113.701 163.995 112.193 165.545L106.262 171.647L99.963 177.456C99.0663 178.283 98.5029 179.41 98.3788 180.623L97.8085 186.199C97.5781 188.451 95.8606 190.255 93.6329 190.657C92.8595 190.796 92.2226 190.921 92.0347 190.984C91.5966 191.131 96.9269 195.406 99.515 197.452C100.265 198.046 101.352 197.903 101.931 197.141C102.642 196.206 104.06 196.245 104.719 197.217L109.778 204.679C110.883 206.309 113.263 206.372 114.452 204.801C114.873 204.246 115.078 203.559 115.029 202.863C114.873 200.642 114.529 195.73 114.529 195.431C114.529 195.163 118.592 200.375 121.087 203.6C122.254 205.109 124.173 205.828 126.043 205.452L128.39 204.98C128.634 204.931 128.873 204.864 129.106 204.779L138 201.559C138.245 201.47 138.483 201.362 138.712 201.236L142.376 199.215C143.619 198.53 145.094 198.405 146.435 198.871L148.613 199.63C149.086 199.795 149.582 199.887 150.083 199.905L153.959 200.039Z" fill="white" fill-opacity="0.2"/>
<path d="M153.959 200.039C154.583 200.061 155.205 199.966 155.793 199.759L163.992 196.872C164.425 196.72 164.835 196.509 165.21 196.245L171.605 191.744C173.052 190.726 173.852 189.02 173.711 187.256L173.639 186.355C173.423 183.651 175.402 181.268 178.1 180.984L184.272 180.334C185.591 180.195 186.8 179.538 187.635 178.507L191.502 173.729C191.952 173.174 192.514 172.722 193.153 172.402L193.748 172.105C196.372 170.793 197.308 167.514 195.771 165.014L191.393 157.891C191.038 157.314 190.569 156.814 190.015 156.424L174.425 145.425C173.939 145.082 173.361 144.894 172.767 144.886L166.07 144.795C163.97 144.767 163.53 141.818 165.53 141.178C165.831 141.082 166.102 140.91 166.318 140.68L168.693 138.142C169.589 137.185 170.825 136.618 172.134 136.563L174.464 136.466C177.909 136.322 179.844 132.439 177.885 129.602C176.764 127.978 176.867 125.805 178.137 124.295L178.806 123.5L208.029 86.115L213.656 77.2206C215.37 74.5113 214.127 70.9117 211.107 69.8368L183.675 60.0738L171.58 56.469C170.451 56.1326 169.24 56.2055 168.16 56.6747L159.748 60.3289C158.966 60.6683 158.108 60.7924 157.262 60.6883L153.954 60.2808C150.989 59.9157 149.928 56.161 152.264 54.2983C153.004 53.7075 153.959 53.4556 154.895 53.6042L156.528 53.8636C157.635 54.0394 158.758 53.6579 159.528 52.844L160.019 52.3255C161.561 50.6973 160.811 48.0136 158.649 47.4205L158.351 47.3388C157.981 47.2373 157.649 47.0289 157.397 46.7396C156.642 45.8723 156.8 44.5433 157.736 43.8761L185.75 23.9181C186.406 23.4501 186.94 22.8301 187.306 22.1109L189.305 18.1764C190.906 15.0258 188.822 11.254 185.303 10.9322L157.323 8.37337C156.497 8.29785 155.693 8.66742 155.213 9.34353C154.039 10.996 151.461 10.4631 151.039 8.48082L150.861 7.64462C150.698 6.88292 150.215 6.22823 149.536 5.84832L144.004 2.75705C141.382 1.29202 138.069 2.45239 136.935 5.23315L135.612 8.47748C135.194 9.50035 135.127 10.6326 135.422 11.6974L136.144 14.3133C136.901 17.0534 135.224 19.8724 132.455 20.5151L130.867 20.8837L128.13 21.1893C127.074 21.3072 126.289 22.2234 126.335 23.2854L126.366 23.9911C126.425 25.3652 124.89 26.2171 123.755 25.4392C122.598 24.6455 121.037 25.5489 121.149 26.9481L121.422 30.3626C121.438 30.5729 121.492 30.7787 121.579 30.9706C122.272 32.4901 120.718 34.0594 119.192 33.3821L118.93 33.2661C117.904 32.8106 116.707 33.3277 116.335 34.3873L115.414 37.0108C114.997 38.1996 113.875 38.9953 112.615 38.9953H112.255C111.856 38.9953 111.469 38.8681 111.148 38.6324C109.703 37.5699 107.736 38.9575 108.253 40.6755L111.491 51.4479C111.591 51.7823 111.656 52.1173 111.684 52.4653C111.909 55.2339 112.947 68.2555 112.603 68.7738C112.437 69.0244 110.8 69.3111 108.994 69.5559C106.914 69.8378 105.939 72.3425 107.341 73.9047C108.801 75.5321 107.675 78.1223 105.49 78.1654L103.02 78.2141C101.907 78.2361 100.863 78.7601 100.181 79.6398L95.3841 85.8208C95.2002 86.0577 95.0381 86.3107 94.8996 86.5766L94.3274 87.6753C93.5017 89.2607 91.8925 90.2847 90.1066 90.3612L86.6199 90.5104C85.1878 90.5717 84.1153 91.8461 84.2997 93.2676L84.3499 93.655C84.459 94.4959 84.0035 95.3088 83.2294 95.6548C81.7196 96.3298 81.7125 98.4705 83.2178 99.1554L84.5515 99.7622C86.0341 100.437 86.5287 102.299 85.5763 103.621L81.9717 108.621C81.8854 108.741 81.81 108.868 81.7462 109.001C80.8159 110.941 82.6165 113.069 84.6839 112.472L94.4641 109.651C95.5058 109.35 96.4215 108.719 97.0734 107.853L101.039 102.582C101.313 102.218 101.636 101.893 101.998 101.616L106.259 98.3591L110.214 96.1072C111.125 95.5882 112.28 96.0831 112.533 97.1011C112.693 97.7422 112.437 98.4149 111.892 98.7886L105.47 103.193C104.73 103.7 104.14 104.398 103.762 105.212L102.037 108.931C101.779 109.485 101.423 109.988 100.984 110.413L97.1856 114.102C96.4603 114.807 95.9656 115.714 95.7667 116.705L94.257 124.226C94.0616 125.2 93.581 126.093 92.8764 126.792L88.6557 130.98C87.8026 131.826 87.9013 133.233 88.8642 133.952C89.6728 134.556 89.8932 135.674 89.3742 136.539L89.264 136.723C88.7452 137.588 88.88 138.695 89.5913 139.411L90.0179 139.84C91.0646 140.893 91.1774 142.555 90.2823 143.74L84.7601 151.048C84.6114 151.245 84.4774 151.452 84.3594 151.669L78.7344 161.985C78.2653 162.846 78.168 163.86 78.4651 164.794C79.0603 166.665 81.0467 167.711 82.926 167.144L84.7689 166.588C86.3126 166.122 87.5369 164.941 88.0572 163.414L89.5354 159.078L90.8812 155.017L92.4773 149.618C92.8122 148.484 93.5377 147.506 94.5249 146.857L95.9866 145.896C97.2558 145.061 98.0768 143.695 98.2177 142.182L98.4824 139.343C98.5412 138.712 98.4761 138.076 98.2909 137.47C97.5729 135.124 98.7179 132.61 100.96 131.611L107.574 128.664C109.893 127.631 112.618 128.5 113.911 130.684L116.869 135.678C117.044 135.974 117.311 136.204 117.629 136.334C119.091 136.933 118.866 139.069 117.312 139.349L114.4 139.874C113.53 140.031 112.813 140.645 112.529 141.482C111.547 144.379 109.338 150.978 109.338 151.73C109.338 152.339 111.474 156.632 113.056 159.726C114.04 161.652 113.701 163.995 112.193 165.545L106.262 171.647L99.963 177.456C99.0663 178.283 98.5029 179.41 98.3788 180.623L97.8085 186.199C97.5781 188.451 95.8606 190.255 93.6329 190.657C92.8595 190.796 92.2226 190.921 92.0347 190.984C91.5966 191.131 96.9269 195.406 99.515 197.452C100.265 198.046 101.352 197.903 101.931 197.141C102.642 196.206 104.06 196.245 104.719 197.217L109.778 204.679C110.883 206.309 113.263 206.372 114.452 204.801C114.873 204.246 115.078 203.559 115.029 202.863C114.873 200.642 114.529 195.73 114.529 195.431C114.529 195.163 118.592 200.375 121.087 203.6C122.254 205.109 124.173 205.828 126.043 205.452L128.39 204.98C128.634 204.931 128.873 204.864 129.106 204.779L138 201.559C138.245 201.47 138.483 201.362 138.712 201.236L142.376 199.215C143.619 198.53 145.094 198.405 146.435 198.871L148.613 199.63C149.086 199.795 149.582 199.887 150.083 199.905L153.959 200.039Z" stroke="white" stroke-width="1.5"/>
</g>
<g filter="url(#filter1_b)">
<path d="M32.6948 440.165L23.8219 433.649C22.9091 432.979 22.3368 431.941 22.2567 430.812C22.1124 428.779 23.5733 426.985 25.5929 426.714L27.7456 426.425L38.3435 426.279C40.387 426.25 42.2091 424.982 42.9359 423.072C43.366 421.941 43.7624 420.89 43.8334 420.668C43.8277 420.663 43.8276 420.654 43.8333 420.643C43.8489 420.611 43.848 420.622 43.8334 420.668C43.9554 420.778 46.6372 419.446 48.4124 418.545C49.4187 418.035 50.2098 417.191 50.6992 416.174C51.5513 414.404 52.9014 411.777 53.4094 411.777C53.6178 411.777 53.9823 411.862 54.4025 411.987C56.0754 412.484 57.9017 412.296 59.2999 411.252L66.1248 406.156C67.8054 404.901 68.5242 402.731 67.925 400.721L67.2465 398.445C66.8642 397.163 67.2277 395.774 68.1894 394.843L68.7913 394.261C70.2011 392.897 72.5246 393.26 73.4502 394.99C73.9642 395.951 74.9653 396.551 76.0548 396.551H76.5819C77.9975 396.551 79.2968 395.771 79.9761 394.529C81.6148 391.533 84.5442 386.307 84.8187 386.721C85.1176 387.172 93.1113 386.802 96.6105 386.618C97.6607 386.562 98.7027 386.832 99.59 387.397L109.523 393.718C110.629 394.422 111.967 394.663 113.249 394.39L119.839 392.987C120.734 392.797 121.56 392.364 122.226 391.737L122.7 391.29C123.703 390.345 124.272 389.028 124.272 387.65V387.555C124.272 386.052 124.948 384.628 126.114 383.679L129.672 380.78C130.926 379.758 130.732 377.787 129.302 377.03L129.056 376.899C128.809 376.769 128.528 376.717 128.251 376.75C126.803 376.924 126.123 375.014 127.355 374.233L134.297 369.833C135.068 369.344 135.596 368.552 135.751 367.652L137.076 359.962C137.173 359.4 137.173 358.826 137.076 358.264L136.009 352.07C135.7 350.275 136.39 348.455 137.812 347.317L144.721 341.786C145.425 341.223 145.963 340.48 146.279 339.637L148.117 334.732C148.605 333.43 148.528 331.983 147.906 330.739L143.941 322.82C143.363 321.666 143.254 320.334 143.636 319.101L143.806 318.553C144.202 317.278 145.09 316.214 146.274 315.598L149.172 314.09C151.37 312.946 152.399 310.366 151.59 308.024L151.265 307.08C150.796 305.722 149.654 304.706 148.25 304.4L148.125 304.372C146.695 304.06 145.559 302.975 145.182 301.56C144.733 299.876 145.453 298.098 146.947 297.201L149.666 295.569C151.47 294.486 151.985 292.103 150.788 290.372C150.604 290.105 150.456 289.814 150.348 289.508L149.078 285.89C148.959 285.552 149.053 285.176 149.316 284.933C149.735 284.547 149.693 283.875 149.231 283.544L141.829 278.244C140.765 277.481 140.041 276.332 139.815 275.042L139.557 273.569C139.228 271.691 139.995 269.789 141.535 268.666L145.673 265.647C146.311 265.181 146.712 264.457 146.768 263.668C146.832 262.761 146.433 261.883 145.707 261.335L143.507 259.674C142.3 258.764 141.771 257.21 142.17 255.752C142.666 253.943 144.441 252.794 146.295 253.081L148.731 253.458C149.763 253.618 150.763 253.021 151.112 252.037C151.337 251.405 151.257 250.704 150.896 250.139L150.758 249.924C150.149 248.971 150.2 247.738 150.886 246.838L153.566 243.32C153.93 242.842 154.03 242.213 153.833 241.646C153.379 240.34 151.679 240.019 150.781 241.07L148.074 244.233C147.344 245.086 146.177 245.426 145.102 245.097C143.637 244.648 142.797 243.111 143.211 241.635L143.266 241.438C143.37 241.067 143.4 240.679 143.353 240.297L143.201 239.06C143.03 237.664 141.527 236.86 140.271 237.492C139.517 237.871 138.608 237.745 137.985 237.176L137.803 237.009C137.243 236.497 136.959 235.749 137.039 234.994L137.712 228.629C137.815 227.655 137.629 226.672 137.179 225.802L134.66 220.944C133.807 219.299 133.934 217.317 134.989 215.794L142.258 205.304C143.005 204.226 144.146 203.485 145.435 203.24L151.989 201.996C152.98 201.807 153.812 201.138 154.207 200.21C154.536 199.436 155.174 198.834 155.965 198.55L164.04 195.645C164.449 195.498 164.838 195.298 165.195 195.051L171.42 190.738C172.768 189.804 173.573 188.268 173.573 186.628V185.021C173.573 182.525 175.413 180.412 177.884 180.068L184.109 179.203C185.277 179.041 186.35 178.471 187.139 177.594L191.457 172.793C191.876 172.327 192.378 171.945 192.938 171.665L194.266 171C196.542 169.861 199.311 170.614 200.697 172.749L201.578 174.107C202.001 174.758 202.266 175.499 202.353 176.27L207.673 223.563C207.857 225.197 208.831 226.636 210.28 227.412L228.549 237.2C229.656 237.793 230.498 238.78 230.911 239.965L235.833 254.12C236.262 255.355 236.191 256.708 235.634 257.891L232.833 263.844C232.242 265.1 232.199 266.544 232.715 267.832L238.364 281.943C238.96 283.433 238.805 285.118 237.947 286.474L236.753 288.363C236.098 289.398 235.846 290.636 236.044 291.845L239.376 312.172C239.654 313.868 239.042 315.588 237.754 316.726L235.901 318.366C233.586 320.413 233.755 324.075 236.248 325.9C238.272 327.381 241.092 327.072 242.746 325.188L244.873 322.767C246.46 320.959 249.111 320.539 251.18 321.766L280.11 338.928C282.318 340.238 283.175 343.008 282.092 345.337L267.914 375.82C267.468 376.777 266.406 377.283 265.381 377.026L264.503 376.805C262.804 376.377 261.501 378.308 262.533 379.724C263.166 380.593 262.939 381.816 262.036 382.4L259.138 384.275C258.624 384.607 258 384.724 257.401 384.6L254.942 384.092C253.633 383.822 252.704 385.339 253.541 386.382C253.895 386.822 253.955 387.43 253.695 387.931L249.931 395.192C249.679 395.677 249.194 395.996 248.65 396.035L244.247 396.352C242.908 396.448 242.848 398.391 244.178 398.57C244.632 398.631 245.002 398.962 245.113 399.406L246.128 403.495C246.751 406.003 249.183 407.623 251.738 407.231L257.864 406.293C261.274 405.771 264.176 408.776 263.534 412.165L262.473 417.77C262.064 419.934 260.286 421.575 258.097 421.811L252.986 422.362C251.746 422.496 250.601 423.088 249.775 424.023L246.481 427.753C245.681 428.658 244.252 428.598 243.53 427.63C243.003 426.923 242.06 426.671 241.251 427.02L223.66 434.607C222.113 435.274 220.334 435.117 218.928 434.19L211.485 429.283C210.569 428.679 209.48 428.393 208.386 428.469L189.667 429.768C188.497 429.849 187.337 429.517 186.387 428.829L173.874 419.762C172.113 418.487 169.72 420.102 170.244 422.212C170.621 423.732 169.422 425.185 167.858 425.102L152.293 424.277C150.515 424.183 148.95 425.441 148.659 427.198C148.318 429.253 146.267 430.557 144.261 429.992L106.654 419.408C104.411 418.777 102.03 419.779 100.912 421.824L92.434 437.336C91.1678 439.653 88.3183 440.586 85.9269 439.467L61.5331 428.049C59.1459 426.931 56.3033 427.924 55.1305 430.284C54.3108 431.934 52.6274 432.978 50.785 432.978H46.9977C45.4815 432.978 44.0473 433.666 43.0983 434.848L39.5537 439.264C37.8775 441.353 34.8533 441.75 32.6948 440.165Z" fill="white" fill-opacity="0.2"/>
<path d="M32.6948 440.165L23.8219 433.649C22.9091 432.979 22.3368 431.941 22.2567 430.812C22.1124 428.779 23.5733 426.985 25.5929 426.714L27.7456 426.425L38.3435 426.279C40.387 426.25 42.2091 424.982 42.9359 423.072C43.366 421.941 43.7624 420.89 43.8334 420.668C43.8277 420.663 43.8276 420.654 43.8333 420.643C43.8489 420.611 43.848 420.622 43.8334 420.668C43.9554 420.778 46.6372 419.446 48.4124 418.545C49.4187 418.035 50.2098 417.191 50.6992 416.174C51.5513 414.404 52.9014 411.777 53.4094 411.777C53.6178 411.777 53.9823 411.862 54.4025 411.987C56.0754 412.484 57.9017 412.296 59.2999 411.252L66.1248 406.156C67.8054 404.901 68.5242 402.731 67.925 400.721L67.2465 398.445C66.8642 397.163 67.2277 395.774 68.1894 394.843L68.7913 394.261C70.2011 392.897 72.5246 393.26 73.4502 394.99C73.9642 395.951 74.9653 396.551 76.0548 396.551H76.5819C77.9975 396.551 79.2968 395.771 79.9761 394.529C81.6148 391.533 84.5442 386.307 84.8187 386.721C85.1176 387.172 93.1113 386.802 96.6105 386.618C97.6607 386.562 98.7027 386.832 99.59 387.397L109.523 393.718C110.629 394.422 111.967 394.663 113.249 394.39L119.839 392.987C120.734 392.797 121.56 392.364 122.226 391.737L122.7 391.29C123.703 390.345 124.272 389.028 124.272 387.65V387.555C124.272 386.052 124.948 384.628 126.114 383.679L129.672 380.78C130.926 379.758 130.732 377.787 129.302 377.03L129.056 376.899C128.809 376.769 128.528 376.717 128.251 376.75C126.803 376.924 126.123 375.014 127.355 374.233L134.297 369.833C135.068 369.344 135.596 368.552 135.751 367.652L137.076 359.962C137.173 359.4 137.173 358.826 137.076 358.264L136.009 352.07C135.7 350.275 136.39 348.455 137.812 347.317L144.721 341.786C145.425 341.223 145.963 340.48 146.279 339.637L148.117 334.732C148.605 333.43 148.528 331.983 147.906 330.739L143.941 322.82C143.363 321.666 143.254 320.334 143.636 319.101L143.806 318.553C144.202 317.278 145.09 316.214 146.274 315.598L149.172 314.09C151.37 312.946 152.399 310.366 151.59 308.024L151.265 307.08C150.796 305.722 149.654 304.706 148.25 304.4L148.125 304.372C146.695 304.06 145.559 302.975 145.182 301.56C144.733 299.876 145.453 298.098 146.947 297.201L149.666 295.569C151.47 294.486 151.985 292.103 150.788 290.372C150.604 290.105 150.456 289.814 150.348 289.508L149.078 285.89C148.959 285.552 149.053 285.176 149.316 284.933C149.735 284.547 149.693 283.875 149.231 283.544L141.829 278.244C140.765 277.481 140.041 276.332 139.815 275.042L139.557 273.569C139.228 271.691 139.995 269.789 141.535 268.666L145.673 265.647C146.311 265.181 146.712 264.457 146.768 263.668C146.832 262.761 146.433 261.883 145.707 261.335L143.507 259.674C142.3 258.764 141.771 257.21 142.17 255.752C142.666 253.943 144.441 252.794 146.295 253.081L148.731 253.458C149.763 253.618 150.763 253.021 151.112 252.037C151.337 251.405 151.257 250.704 150.896 250.139L150.758 249.924C150.149 248.971 150.2 247.738 150.886 246.838L153.566 243.32C153.93 242.842 154.03 242.213 153.833 241.646C153.379 240.34 151.679 240.019 150.781 241.07L148.074 244.233C147.344 245.086 146.177 245.426 145.102 245.097C143.637 244.648 142.797 243.111 143.211 241.635L143.266 241.438C143.37 241.067 143.4 240.679 143.353 240.297L143.201 239.06C143.03 237.664 141.527 236.86 140.271 237.492C139.517 237.871 138.608 237.745 137.985 237.176L137.803 237.009C137.243 236.497 136.959 235.749 137.039 234.994L137.712 228.629C137.815 227.655 137.629 226.672 137.179 225.802L134.66 220.944C133.807 219.299 133.934 217.317 134.989 215.794L142.258 205.304C143.005 204.226 144.146 203.485 145.435 203.24L151.989 201.996C152.98 201.807 153.812 201.138 154.207 200.21C154.536 199.436 155.174 198.834 155.965 198.55L164.04 195.645C164.449 195.498 164.838 195.298 165.195 195.051L171.42 190.738C172.768 189.804 173.573 188.268 173.573 186.628V185.021C173.573 182.525 175.413 180.412 177.884 180.068L184.109 179.203C185.277 179.041 186.35 178.471 187.139 177.594L191.457 172.793C191.876 172.327 192.378 171.945 192.938 171.665L194.266 171C196.542 169.861 199.311 170.614 200.697 172.749L201.578 174.107C202.001 174.758 202.266 175.499 202.353 176.27L207.673 223.563C207.857 225.197 208.831 226.636 210.28 227.412L228.549 237.2C229.656 237.793 230.498 238.78 230.911 239.965L235.833 254.12C236.262 255.355 236.191 256.708 235.634 257.891L232.833 263.844C232.242 265.1 232.199 266.544 232.715 267.832L238.364 281.943C238.96 283.433 238.805 285.118 237.947 286.474L236.753 288.363C236.098 289.398 235.846 290.636 236.044 291.845L239.376 312.172C239.654 313.868 239.042 315.588 237.754 316.726L235.901 318.366C233.586 320.413 233.755 324.075 236.248 325.9C238.272 327.381 241.092 327.072 242.746 325.188L244.873 322.767C246.46 320.959 249.111 320.539 251.18 321.766L280.11 338.928C282.318 340.238 283.175 343.008 282.092 345.337L267.914 375.82C267.468 376.777 266.406 377.283 265.381 377.026L264.503 376.805C262.804 376.377 261.501 378.308 262.533 379.724C263.166 380.593 262.939 381.816 262.036 382.4L259.138 384.275C258.624 384.607 258 384.724 257.401 384.6L254.942 384.092C253.633 383.822 252.704 385.339 253.541 386.382C253.895 386.822 253.955 387.43 253.695 387.931L249.931 395.192C249.679 395.677 249.194 395.996 248.65 396.035L244.247 396.352C242.908 396.448 242.848 398.391 244.178 398.57C244.632 398.631 245.002 398.962 245.113 399.406L246.128 403.495C246.751 406.003 249.183 407.623 251.738 407.231L257.864 406.293C261.274 405.771 264.176 408.776 263.534 412.165L262.473 417.77C262.064 419.934 260.286 421.575 258.097 421.811L252.986 422.362C251.746 422.496 250.601 423.088 249.775 424.023L246.481 427.753C245.681 428.658 244.252 428.598 243.53 427.63C243.003 426.923 242.06 426.671 241.251 427.02L223.66 434.607C222.113 435.274 220.334 435.117 218.928 434.19L211.485 429.283C210.569 428.679 209.48 428.393 208.386 428.469L189.667 429.768C188.497 429.849 187.337 429.517 186.387 428.829L173.874 419.762C172.113 418.487 169.72 420.102 170.244 422.212C170.621 423.732 169.422 425.185 167.858 425.102L152.293 424.277C150.515 424.183 148.95 425.441 148.659 427.198C148.318 429.253 146.267 430.557 144.261 429.992L106.654 419.408C104.411 418.777 102.03 419.779 100.912 421.824L92.434 437.336C91.1678 439.653 88.3183 440.586 85.9269 439.467L61.5331 428.049C59.1459 426.931 56.3033 427.924 55.1305 430.284C54.3108 431.934 52.6274 432.978 50.785 432.978H46.9977C45.4815 432.978 44.0473 433.666 43.0983 434.848L39.5537 439.264C37.8775 441.353 34.8533 441.75 32.6948 440.165Z" stroke="white" stroke-width="1.5"/>
</g>
<g filter="url(#filter2_d)">
<path d="M133.797 370.076L123.187 377.34L117.651 382.102C116.94 382.714 116.071 383.113 115.144 383.254L112.517 383.655C111.08 383.874 109.618 383.457 108.514 382.512L103.699 378.394C102.985 377.783 102.457 376.984 102.177 376.087L100.008 369.156C99.5998 367.851 98.5742 366.832 97.2671 366.432C95.8403 365.995 94.2887 366.359 93.2052 367.385L92.9026 367.672C92.1289 368.404 91.1312 368.855 90.0701 368.952C87.4811 369.189 85.183 367.3 84.9145 364.714L84.5158 360.875C84.2557 358.369 82.1726 356.449 79.6544 356.392L77.7787 356.35C76.3065 356.317 74.8947 356.935 73.9198 358.039L72.4999 359.646C71.4715 360.81 69.9603 361.43 68.4105 361.324L65.1253 361.099C63.4578 360.984 61.9578 360.044 61.1277 358.594L59.4731 355.702C59.0484 354.96 58.4281 354.348 57.6798 353.934C56.0525 353.034 55.1141 351.254 55.2906 349.402L55.832 343.72C56.1062 340.844 58.7542 338.798 61.6066 339.259L68.9569 340.446C70.7299 340.732 72.5203 340.045 73.6473 338.647L75.8334 335.934C76.9086 334.6 78.5921 333.909 80.2946 334.104L83.776 334.502C85.175 334.662 86.5767 334.224 87.6364 333.297L101.825 320.883C102.927 319.919 103.551 318.519 103.532 317.055L103.393 306.418C103.378 305.331 103.01 304.278 102.344 303.419L100.233 300.697C98.5735 298.558 95.5136 298.128 93.3291 299.727L90.4636 301.824C88.5941 303.192 85.935 302.394 85.1273 300.223C84.533 298.626 85.1784 296.833 86.6543 295.98L90.3474 293.848C90.868 293.547 91.33 293.155 91.7115 292.69L96.3469 287.044C97.5961 285.523 97.8362 283.41 96.9601 281.647L94.3462 276.387C93.4611 274.605 93.8476 272.455 95.2975 271.093C97.1154 269.386 99.9738 269.478 101.677 271.3L106.611 276.574C107.311 277.322 107.489 278.419 107.062 279.35C106.308 280.993 107.476 282.872 109.283 282.826C110.741 282.79 112.08 282.685 112.165 282.428C112.213 282.283 112.455 281.967 112.791 281.575C114.205 279.923 116.783 280.119 118.104 281.847C118.919 282.913 120.26 283.435 121.581 283.2L125.372 282.527C125.744 282.461 126.121 282.437 126.498 282.456L131.495 282.708C132.757 282.771 133.856 283.587 134.283 284.776L134.926 286.568C135.439 287.996 137.294 288.355 138.302 287.221C138.9 286.549 138.975 285.56 138.486 284.805L137.423 283.165C136.857 282.292 136.996 281.14 137.752 280.427C138.687 279.545 140.181 279.673 140.952 280.701L145.704 287.033C146.157 287.636 147.048 287.675 147.551 287.113C148.157 286.436 149.266 286.655 149.569 287.512L150.454 290.022C150.553 290.303 150.697 290.566 150.88 290.801L150.905 290.834C152.019 292.267 151.63 294.352 150.073 295.286L146.672 297.328C145.334 298.131 144.646 299.688 144.952 301.217C145.261 302.765 146.52 303.945 148.084 304.153L148.209 304.17C149.674 304.365 150.9 305.379 151.367 306.782L151.652 307.635C152.428 309.967 151.396 312.517 149.216 313.651L145.807 315.425C144.918 315.887 144.188 316.607 143.712 317.491L143.393 318.085C142.557 319.637 142.601 321.514 143.507 323.026L147.937 330.412C148.753 331.773 148.874 333.44 148.264 334.905L146.303 339.615C145.98 340.39 145.467 341.071 144.812 341.596L137.845 347.172C136.424 348.31 135.733 350.131 136.042 351.925L137.107 358.1C137.203 358.662 137.203 359.237 137.107 359.799L135.9 366.8C135.671 368.131 134.912 369.313 133.797 370.076Z" fill="#BCFEE9" fill-opacity="0.7"/>
<path d="M133.797 370.076L123.187 377.34L117.651 382.102C116.94 382.714 116.071 383.113 115.144 383.254L112.517 383.655C111.08 383.874 109.618 383.457 108.514 382.512L103.699 378.394C102.985 377.783 102.457 376.984 102.177 376.087L100.008 369.156C99.5998 367.851 98.5742 366.832 97.2671 366.432C95.8403 365.995 94.2887 366.359 93.2052 367.385L92.9026 367.672C92.1289 368.404 91.1312 368.855 90.0701 368.952C87.4811 369.189 85.183 367.3 84.9145 364.714L84.5158 360.875C84.2557 358.369 82.1726 356.449 79.6544 356.392L77.7787 356.35C76.3065 356.317 74.8947 356.935 73.9198 358.039L72.4999 359.646C71.4715 360.81 69.9603 361.43 68.4105 361.324L65.1253 361.099C63.4578 360.984 61.9578 360.044 61.1277 358.594L59.4731 355.702C59.0484 354.96 58.4281 354.348 57.6798 353.934C56.0525 353.034 55.1141 351.254 55.2906 349.402L55.832 343.72C56.1062 340.844 58.7542 338.798 61.6066 339.259L68.9569 340.446C70.7299 340.732 72.5203 340.045 73.6473 338.647L75.8334 335.934C76.9086 334.6 78.5921 333.909 80.2946 334.104L83.776 334.502C85.175 334.662 86.5767 334.224 87.6364 333.297L101.825 320.883C102.927 319.919 103.551 318.519 103.532 317.055L103.393 306.418C103.378 305.331 103.01 304.278 102.344 303.419L100.233 300.697C98.5735 298.558 95.5136 298.128 93.3291 299.727L90.4636 301.824C88.5941 303.192 85.935 302.394 85.1273 300.223C84.533 298.626 85.1784 296.833 86.6543 295.98L90.3474 293.848C90.868 293.547 91.33 293.155 91.7115 292.69L96.3469 287.044C97.5961 285.523 97.8362 283.41 96.9601 281.647L94.3462 276.387C93.4611 274.605 93.8476 272.455 95.2975 271.093C97.1154 269.386 99.9738 269.478 101.677 271.3L106.611 276.574C107.311 277.322 107.489 278.419 107.062 279.35C106.308 280.993 107.476 282.872 109.283 282.826C110.741 282.79 112.08 282.685 112.165 282.428C112.213 282.283 112.455 281.967 112.791 281.575C114.205 279.923 116.783 280.119 118.104 281.847C118.919 282.913 120.26 283.435 121.581 283.2L125.372 282.527C125.744 282.461 126.121 282.437 126.498 282.456L131.495 282.708C132.757 282.771 133.856 283.587 134.283 284.776L134.926 286.568C135.439 287.996 137.294 288.355 138.302 287.221C138.9 286.549 138.975 285.56 138.486 284.805L137.423 283.165C136.857 282.292 136.996 281.14 137.752 280.427C138.687 279.545 140.181 279.673 140.952 280.701L145.704 287.033C146.157 287.636 147.048 287.675 147.551 287.113C148.157 286.436 149.266 286.655 149.569 287.512L150.454 290.022C150.553 290.303 150.697 290.566 150.88 290.801L150.905 290.834C152.019 292.267 151.63 294.352 150.073 295.286L146.672 297.328C145.334 298.131 144.646 299.688 144.952 301.217C145.261 302.765 146.52 303.945 148.084 304.153L148.209 304.17C149.674 304.365 150.9 305.379 151.367 306.782L151.652 307.635C152.428 309.967 151.396 312.517 149.216 313.651L145.807 315.425C144.918 315.887 144.188 316.607 143.712 317.491L143.393 318.085C142.557 319.637 142.601 321.514 143.507 323.026L147.937 330.412C148.753 331.773 148.874 333.44 148.264 334.905L146.303 339.615C145.98 340.39 145.467 341.071 144.812 341.596L137.845 347.172C136.424 348.31 135.733 350.131 136.042 351.925L137.107 358.1C137.203 358.662 137.203 359.237 137.107 359.799L135.9 366.8C135.671 368.131 134.912 369.313 133.797 370.076Z" stroke="#1FCEB9" stroke-width="1.5"/>
</g>
<g filter="url(#filter3_b)">
<path d="M7.04852 191.022C3.66563 192.024 2.35683 196.12 4.53186 198.898L14.4773 211.601C15.4481 212.841 16.9464 213.551 18.5208 213.517L20.9061 213.466C23.2794 213.416 25.2899 211.703 25.7176 209.368L26.1267 207.135C26.473 205.245 27.9283 203.751 29.8093 203.357C32.5395 202.784 35.1703 204.685 35.4833 207.457L35.8039 210.297C35.9573 211.655 36.6597 212.891 37.7479 213.718L40.3901 215.725C41.5197 216.583 41.8791 218.123 41.2461 219.392C40.4242 221.04 41.296 223.031 43.0648 223.544L45.2458 224.177C46.2256 224.462 47.2731 224.04 47.7832 223.157C48.4405 222.018 49.9383 221.699 51.0029 222.47L54.2803 224.843C55.3068 225.587 56.5772 225.912 57.8348 225.755L57.8885 225.748C59.498 225.546 60.9097 224.576 61.6751 223.146L63.3596 219.998C64.1639 218.495 65.6783 217.506 67.3776 217.373L72.5474 216.968C75.0216 216.774 76.9792 214.794 77.1457 212.318L77.5774 205.896C77.7934 202.684 74.961 200.107 71.7832 200.626L70.3902 200.853C70.0033 200.917 69.6066 200.876 69.2404 200.736C67.6773 200.139 67.3116 198.093 68.571 196.992L73.1587 192.979C74.1572 192.105 74.6504 190.789 74.4716 189.475C74.2932 188.162 73.4686 187.027 72.2758 186.451L71.313 185.986C69.8817 185.295 68.8642 183.965 68.572 182.402L68.0454 179.586C67.9441 179.044 67.933 178.49 68.0126 177.945L68.5593 174.199C68.8488 172.215 67.9256 170.251 66.2139 169.207L60.5091 165.73C59.7252 165.253 58.8249 165 57.9069 165H54.2797C53.3457 165 52.4464 165.354 51.7628 165.99C50.7727 166.912 49.3579 167.219 48.0749 166.79L47.2432 166.512C44.9643 165.751 42.4692 166.752 41.35 168.879C40.3494 170.78 38.228 171.808 36.1159 171.416L35.4942 171.3C34.8499 171.181 34.2371 170.935 33.6806 170.589C32.6789 169.966 31.0886 169.016 30.7042 169.016C30.2824 169.016 26.3364 176.291 24.2918 180.114C23.5493 181.503 22.0583 182.32 20.4888 182.194L17.8689 181.984C15.9664 181.831 14.6264 183.814 15.4782 185.522C16.1586 186.887 15.4421 188.535 13.9801 188.968L7.04852 191.022Z" fill="white" fill-opacity="0.2"/>
</g>
<g filter="url(#filter4_d)">
<rect x="104" y="321" width="136" height="30" rx="10" fill="white"/>
</g>
<path d="M143.84 331.768L142.16 338.536L140.504 331.768H138.956L137.3 338.56L135.608 331.768H134.144L136.46 340H138.104L139.724 333.508L141.356 340H142.988L145.304 331.768H143.84ZM151.398 338.764C151.267 338.812 151.195 338.824 151.099 338.824C150.919 338.824 150.799 338.692 150.799 338.464V336.4C150.799 334.936 149.899 334.06 148.23 334.06C146.731 334.06 145.711 334.792 145.615 336.112H146.959C147.019 335.536 147.451 335.2 148.146 335.2C148.963 335.2 149.371 335.632 149.371 336.316V336.616H148.459C146.851 336.616 145.471 337.072 145.471 338.464C145.471 339.412 146.155 340.06 147.463 340.06C148.723 340.06 149.239 339.46 149.431 339.1C149.599 339.736 150.067 340.06 150.703 340.06C151.003 340.06 151.267 340.012 151.495 339.952L151.398 338.764ZM147.847 338.968C147.199 338.968 146.899 338.728 146.899 338.308C146.899 337.756 147.427 337.468 148.387 337.468H149.371V337.852C149.371 338.356 148.807 338.968 147.847 338.968ZM154.468 338.764C154.336 338.812 154.276 338.824 154.18 338.824C154 338.824 153.868 338.692 153.868 338.464V331.48H152.416V338.584C152.416 339.52 152.884 340.06 153.76 340.06C154.084 340.06 154.336 340.012 154.564 339.952L154.468 338.764ZM160.944 337.096C160.944 335.26 159.936 334.06 158.196 334.06C156.516 334.06 155.292 335.296 155.292 337.072C155.292 338.812 156.384 340.06 158.184 340.06C159.9 340.06 160.716 339.112 160.92 338.08H159.54C159.444 338.44 159.12 338.896 158.244 338.896C157.404 338.896 156.84 338.356 156.732 337.396H160.944V337.096ZM158.208 335.188C158.94 335.188 159.432 335.596 159.552 336.496H156.756C156.912 335.632 157.476 335.188 158.208 335.188ZM166.762 338.356C166.762 335.932 163.366 336.904 163.366 335.74C163.366 335.368 163.678 335.128 164.362 335.128C164.986 335.128 165.358 335.38 165.394 335.896H166.678C166.654 334.732 165.85 334.06 164.374 334.06C162.874 334.06 161.95 334.72 161.95 335.776C161.95 338.128 165.346 337.204 165.346 338.392C165.346 338.764 165.022 338.992 164.266 338.992C163.462 338.992 163.126 338.716 163.09 338.212L161.818 338.2C161.83 339.388 162.634 340.06 164.266 340.06C165.826 340.06 166.774 339.412 166.762 338.356Z" fill="#363D44"/>
<path d="M180.208 339.064L182.476 336.748C183.292 335.908 183.868 335.02 183.856 334.084C183.856 332.548 182.728 331.672 181.252 331.672C179.752 331.672 178.54 332.692 178.552 334.312H179.608C179.608 333.22 180.304 332.608 181.264 332.608C182.188 332.608 182.788 333.064 182.788 334.084C182.8 334.936 182.248 335.548 181.468 336.34L178.636 339.232V340H184.06V339.064H180.208ZM190.784 337H189.716V331.768H188.204L184.592 337V337.936H188.66V340H189.716V337.936H190.784V337ZM185.732 336.988L188.648 332.812H188.66V337H185.732V336.988ZM194.927 340.06C196.859 340.06 198.011 338.608 198.011 335.884C198.011 333.16 196.859 331.672 194.927 331.672C192.995 331.672 191.831 333.16 191.831 335.884C191.831 338.608 192.995 340.06 194.927 340.06ZM194.927 339.124C193.631 339.124 192.899 338.032 192.899 335.884C192.899 333.748 193.631 332.608 194.927 332.608C196.223 332.608 196.943 333.748 196.943 335.884C196.943 338.032 196.223 339.124 194.927 339.124ZM203.059 335.716C203.059 335.248 203.443 334.96 204.247 334.96C204.991 334.96 205.435 335.26 205.483 335.836L206.467 335.848C206.419 334.708 205.687 334.06 204.271 334.06C202.843 334.06 202.015 334.744 202.015 335.716C202.015 338.008 205.507 337.036 205.507 338.404C205.507 338.848 205.123 339.16 204.211 339.16C203.251 339.16 202.891 338.848 202.831 338.284L201.859 338.272C201.883 339.412 202.579 340.06 204.199 340.06C205.711 340.06 206.551 339.376 206.551 338.404C206.551 336.04 203.059 337.06 203.059 335.716ZM211.192 338.992C210.94 339.1 210.688 339.136 210.424 339.136C209.464 339.136 209.188 338.656 209.188 338.068V335.008H211.096V334.12H209.188V332.368H208.192V334.12H207.244V335.032H208.132V338.068C208.132 339.292 208.948 340.06 210.316 340.06C210.688 340.06 211.048 340 211.24 339.916L211.192 338.992ZM217.65 339.04C217.53 339.088 217.458 339.1 217.35 339.1C217.158 339.1 217.014 338.956 217.014 338.704V336.304C217.014 334.888 216.126 334.06 214.578 334.06C213.138 334.06 212.142 334.792 212.046 336.064H213.078C213.15 335.356 213.666 334.96 214.506 334.96C215.454 334.96 215.958 335.464 215.958 336.28V336.664H214.722C213.09 336.664 211.914 337.192 211.914 338.464C211.914 339.4 212.574 340.06 213.906 340.06C215.214 340.06 215.754 339.436 215.97 339.1C216.042 339.676 216.45 340.06 217.062 340.06C217.314 340.06 217.53 340.024 217.734 339.964L217.65 339.04ZM214.122 339.208C213.33 339.208 212.994 338.908 212.994 338.416C212.994 337.768 213.558 337.432 214.662 337.432H215.958V337.84C215.958 338.38 215.31 339.208 214.122 339.208ZM222.573 334.12L221.061 338.296C220.989 338.512 220.941 338.68 220.893 338.92H220.869C220.809 338.68 220.761 338.512 220.677 338.296L219.189 334.12H218.001L220.317 340.228L220.173 340.564C219.837 341.38 219.417 341.5 218.865 341.5C218.649 341.5 218.505 341.464 218.301 341.38L218.217 342.316C218.409 342.4 218.757 342.46 219.093 342.46C220.089 342.46 220.653 342.028 221.169 340.66L221.421 340L223.653 334.12H222.573ZM225.395 335.716C225.395 335.248 225.779 334.96 226.583 334.96C227.327 334.96 227.771 335.26 227.819 335.836L228.803 335.848C228.755 334.708 228.023 334.06 226.607 334.06C225.179 334.06 224.351 334.744 224.351 335.716C224.351 338.008 227.843 337.036 227.843 338.404C227.843 338.848 227.459 339.16 226.547 339.16C225.587 339.16 225.227 338.848 225.167 338.284L224.195 338.272C224.219 339.412 224.915 340.06 226.535 340.06C228.047 340.06 228.887 339.376 228.887 338.404C228.887 336.04 225.395 337.06 225.395 335.716Z" fill="#8F9AA3"/>
<g filter="url(#filter5_d)">
<rect x="109" y="326" width="20" height="20" rx="5" fill="#1FCEB9"/>
</g>
<path d="M123 334.231C123 337.404 119 341 119 341C119 341 115 337.404 115 334.231C115 331.894 116.791 330 119 330C121.209 330 123 331.894 123 334.231Z" stroke="white"/>
<ellipse cx="119" cy="334.125" rx="1.33333" ry="1.375" stroke="white"/>
<path d="M173 332L173 340" stroke="#E7EFF1"/>
<g filter="url(#filter6_d)">
<rect x="129" y="105" width="30" height="30" rx="10" fill="white"/>
</g>
<circle cx="144" cy="120" r="6" stroke="#8F9AA3"/>
<path d="M144 117.6V120.3L145.8 122.1" stroke="#8F9AA3" stroke-linecap="round"/>
<g filter="url(#filter7_d)">
<rect x="178" y="239" width="30" height="30" rx="10" fill="white"/>
</g>
<circle cx="193" cy="254" r="6" stroke="#8F9AA3"/>
<path d="M193 251.6V254.3L194.8 256.1" stroke="#8F9AA3" stroke-linecap="round"/>
<defs>
<filter id="filter0_b" x="57.546" y="-18.6301" width="177.637" height="245.321" filterUnits="userSpaceOnUse" color-interpolation-filters="sRGB">
<feFlood flood-opacity="0" result="BackgroundImageFix"/>
<feGaussianBlur in="BackgroundImage" stdDeviation="10"/>
<feComposite in2="SourceAlpha" operator="in" result="effect1_backgroundBlur"/>
<feBlend mode="normal" in="SourceGraphic" in2="effect1_backgroundBlur" result="shape"/>
</filter>
<filter id="filter1_b" x="1.49683" y="149.721" width="301.813" height="312.164" filterUnits="userSpaceOnUse" color-interpolation-filters="sRGB">
<feFlood flood-opacity="0" result="BackgroundImageFix"/>
<feGaussianBlur in="BackgroundImage" stdDeviation="10"/>
<feComposite in2="SourceAlpha" operator="in" result="effect1_backgroundBlur"/>
<feBlend mode="normal" in="SourceGraphic" in2="effect1_backgroundBlur" result="shape"/>
</filter>
<filter id="filter2_d" x="39.5194" y="254.121" width="128.139" height="145.341" filterUnits="userSpaceOnUse" color-interpolation-filters="sRGB">
<feFlood flood-opacity="0" result="BackgroundImageFix"/>
<feColorMatrix in="SourceAlpha" type="matrix" values="0 0 0 0 0 0 0 0 0 0 0 0 0 0 0 0 0 0 127 0"/>
<feOffset/>
<feGaussianBlur stdDeviation="7.5"/>
<feColorMatrix type="matrix" values="0 0 0 0 0.121569 0 0 0 0 0.807843 0 0 0 0 0.72549 0 0 0 0.3 0"/>
<feBlend mode="normal" in2="BackgroundImageFix" result="effect1_dropShadow"/>
<feBlend mode="normal" in="SourceGraphic" in2="effect1_dropShadow" result="shape"/>
</filter>
<filter id="filter3_b" x="-16.5341" y="145" width="114.123" height="100.794" filterUnits="userSpaceOnUse" color-interpolation-filters="sRGB">
<feFlood flood-opacity="0" result="BackgroundImageFix"/>
<feGaussianBlur in="BackgroundImage" stdDeviation="10"/>
<feComposite in2="SourceAlpha" operator="in" result="effect1_backgroundBlur"/>
<feBlend mode="normal" in="SourceGraphic" in2="effect1_backgroundBlur" result="shape"/>
</filter>
<filter id="filter4_d" x="84" y="306" width="176" height="70" filterUnits="userSpaceOnUse" color-interpolation-filters="sRGB">
<feFlood flood-opacity="0" result="BackgroundImageFix"/>
<feColorMatrix in="SourceAlpha" type="matrix" values="0 0 0 0 0 0 0 0 0 0 0 0 0 0 0 0 0 0 127 0"/>
<feOffset dy="5"/>
<feGaussianBlur stdDeviation="10"/>
<feColorMatrix type="matrix" values="0 0 0 0 0.149899 0 0 0 0 0.182605 0 0 0 0 0.212796 0 0 0 0.1 0"/>
<feBlend mode="normal" in2="BackgroundImageFix" result="effect1_dropShadow"/>
<feBlend mode="normal" in="SourceGraphic" in2="effect1_dropShadow" result="shape"/>
</filter>
<filter id="filter5_d" x="79" y="296" width="80" height="80" filterUnits="userSpaceOnUse" color-interpolation-filters="sRGB">
<feFlood flood-opacity="0" result="BackgroundImageFix"/>
<feColorMatrix in="SourceAlpha" type="matrix" values="0 0 0 0 0 0 0 0 0 0 0 0 0 0 0 0 0 0 127 0"/>
<feOffset/>
<feGaussianBlur stdDeviation="15"/>
<feColorMatrix type="matrix" values="0 0 0 0 0.890196 0 0 0 0 0.937255 0 0 0 0 0.952941 0 0 0 0.4 0"/>
<feBlend mode="normal" in2="BackgroundImageFix" result="effect1_dropShadow"/>
<feBlend mode="normal" in="SourceGraphic" in2="effect1_dropShadow" result="shape"/>
</filter>
<filter id="filter6_d" x="109" y="90" width="70" height="70" filterUnits="userSpaceOnUse" color-interpolation-filters="sRGB">
<feFlood flood-opacity="0" result="BackgroundImageFix"/>
<feColorMatrix in="SourceAlpha" type="matrix" values="0 0 0 0 0 0 0 0 0 0 0 0 0 0 0 0 0 0 127 0"/>
<feOffset dy="5"/>
<feGaussianBlur stdDeviation="10"/>
<feColorMatrix type="matrix" values="0 0 0 0 0.149899 0 0 0 0 0.182605 0 0 0 0 0.212796 0 0 0 0.1 0"/>
<feBlend mode="normal" in2="BackgroundImageFix" result="effect1_dropShadow"/>
<feBlend mode="normal" in="SourceGraphic" in2="effect1_dropShadow" result="shape"/>
</filter>
<filter id="filter7_d" x="158" y="224" width="70" height="70" filterUnits="userSpaceOnUse" color-interpolation-filters="sRGB">
<feFlood flood-opacity="0" result="BackgroundImageFix"/>
<feColorMatrix in="SourceAlpha" type="matrix" values="0 0 0 0 0 0 0 0 0 0 0 0 0 0 0 0 0 0 127 0"/>
<feOffset dy="5"/>
<feGaussianBlur stdDeviation="10"/>
<feColorMatrix type="matrix" values="0 0 0 0 0.149899 0 0 0 0 0.182605 0 0 0 0 0.212796 0 0 0 0.1 0"/>
<feBlend mode="normal" in2="BackgroundImageFix" result="effect1_dropShadow"/>
<feBlend mode="normal" in="SourceGraphic" in2="effect1_dropShadow" result="shape"/>
</filter>
</defs>
</svg>
